<svg id="Layer_1" data-name="Layer 1" xmlns="http://www.w3.org/2000/svg" viewBox="0 0 556.39 147.07"><defs><style>.cls-1{fill:#ff8500;}.cls-2,.cls-3{fill:#fff;}.cls-3{font-size:133.76px;font-family:Montserrat-Regular, Montserrat;}</style></defs><rect class="cls-1" x="272.16" y="3.24" width="284.23" height="140.59" rx="15"/><path class="cls-2" d="M368.94,400.09V306.6h15.79v40.52h46.41V306.6h15.78v93.49H431.14V361.84H384.73v38.25Z" transform="translate(-81.81 -286.47)"/><path class="cls-2" d="M520.49,367.46V328.93h15v71.16h-15v-13a27,27,0,0,1-23.67,14q-12,0-19.47-7.35t-7.42-21.27V328.93h15V368q0,19.67,16.32,19.66a19.58,19.58,0,0,0,13.51-5.15Q520.49,377.36,520.49,367.46Z" transform="translate(-81.81 -286.47)"/><path class="cls-2" d="M595.26,327.86a33.83,33.83,0,0,1,24.48,9.9q10.15,9.9,10.16,26.35t-10.1,26.75q-10.09,10.31-23.54,10.3t-24.14-11.77v10.7h-15V300.84h15v40.53Q581,327.87,595.26,327.86Zm-23.41,36.79q0,10.16,6.16,16.65a19.88,19.88,0,0,0,15,6.49,21.28,21.28,0,0,0,15.38-6.42q6.54-6.42,6.55-16.66t-6.42-17A20.46,20.46,0,0,0,593.12,341,19.61,19.61,0,0,0,578,347.73Q571.85,354.48,571.85,364.65Z" transform="translate(-81.81 -286.47)"/><text class="cls-3" transform="translate(0 113.63)">Skill</text><circle class="cls-1" cx="180.13" cy="20.13" r="12.53"/></svg>