<svg id="Layer_1" data-name="Layer 1" xmlns="http://www.w3.org/2000/svg" xmlns:xlink="http://www.w3.org/1999/xlink" viewBox="0 0 1728 1012.35"><defs><style>.cls-1{fill:url(#linear-gradient);}</style><linearGradient id="linear-gradient" x1="306" y1="2198" x2="306" y2="1185.65" gradientTransform="matrix(1, 0, 0, -1, 558, 2198)" gradientUnits="userSpaceOnUse"><stop offset="0" stop-color="#fff"/><stop offset="0.3" stop-color="#20a6d5"/><stop offset="0.6" stop-color="#258eb3"/><stop offset="1" stop-color="#032b3a"/></linearGradient></defs><path class="cls-1" d="M0,1012.35V26.69H0c.46.18,11.72,4.56,34.26,11.27,13.59,4,28.65,8.19,44.78,12.28,20.16,5.13,42,10.2,65,15.1C202.41,77.79,268.21,89.15,339.57,99.1c42.38,5.91,87.2,11.38,133.22,16.26,50.62,5.36,104,10.14,158.57,14.21,28,2.08,56.67,3.14,85.36,3.14,73.6,0,150.21-6.79,234.23-20.74,34.32-5.7,70.31-12.65,110-21.25,38.14-8.26,74.7-17,105.43-24.37l35.46-8.59.4-.1h.1c62.25-15.13,121-29.42,177.91-40.08,30.48-5.71,57.81-9.89,83.53-12.78,13.88-1.55,27.48-2.75,40.43-3.54C1517.79.42,1531.09,0,1543.8,0c16.51,0,32.67.71,48,2.1a447.91,447.91,0,0,1,46.7,6.69,394.46,394.46,0,0,1,45.38,11.84A373,373,0,0,1,1728,38.21v973.6c-28.94-17.22-59.29-33.77-90.23-49.19-7.31-3.64-14.78-7.28-22.21-10.83v-379a27,27,0,0,0-27-27H1283.4a27,27,0,0,0-27,27V831c-7.4-1.59-15-3.15-22.44-4.66V572.83a27,27,0,0,0-27-27H901.8a27,27,0,0,0-27,27V790.21c-3.38,0-6.86,0-10.35,0-4,0-8.1,0-12.09,0V572.83a27,27,0,0,0-27-27H520.2a27,27,0,0,0-27,27V826.7c-7.45,1.5-15,3.08-22.44,4.68V572.83a27,27,0,0,0-27-27H138.6a27,27,0,0,0-27,27v379.8c-7.12,3.41-14.29,6.91-21.31,10.42C59.33,978.5,29,995.09,0,1012.35Z"/></svg>